<svg xmlns="http://www.w3.org/2000/svg" viewBox="0 0 490.513 510.343" fill="#fff" xmlns:v="https://vecta.io/nano"><path d="M227.634 2.556c-3.393 3.612-3.242 9.057.384 13.811 3.254 4.267 3.319 4.225-7.831 5.1-4.4.346-12.725 1.481-18.5 2.521a246.021 246.021 0 0 0-184.87 151.75c-7.13 18.018-14.982 48.9-13.595 53.473 2.621 8.633 13.9 10.191 17.856 2.466.9-1.748 2.537-7.453 3.648-12.678 20.4-95.964 97.762-166.458 194.642-177.365l11.18-1.259-2.348 2.789c-4.969 5.906-3.643 13.631 2.8 16.324 5.833 2.437 8.323 1.049 21.352-11.9 17.671-17.559 17.658-18.049-.93-36.342L239.994 0h-4.979c-4.048 0-5.429.478-7.381 2.556zm129.709 50.577c-2.994 1.74-4.729 7.041-3.6 10.982 3.052 10.608 18.939 8.785 18.939-2.175 0-5.768-3.94-9.949-9.339-9.91a15.493 15.493 0 0 0-6 1.103zm33.933 26.944a10.113 10.113 0 0 0-2.589 6.665c0 3.273 1.158 4.742 13.141 16.673C439.053 140.482 459.363 179.767 468.3 232c2.557 14.939 2.584 51.132.05 66.5a240.467 240.467 0 0 1-16.73 57.5c-4.106 9.386-4.575 9.918-5.408 6.126-1.676-7.628-11.2-10.611-16.605-5.2-3.9 3.9-3.789 6.307 1.122 24.551 3.4 12.623 4.521 15.466 7.016 17.776 1.744 1.614 4.1 2.746 5.705 2.741 3.909-.012 31.956-7.579 34.66-9.351 2.95-1.933 4.973-6.913 4.147-10.206a13.054 13.054 0 0 0-3.363-5.128c-2.424-2.258-3.316-2.47-8.46-2.01a31.429 31.429 0 0 1-5.75.249c0-.146 1.842-4.252 4.093-9.125 22.621-48.963 27.826-106.83 14.474-160.92-11.316-45.844-37.63-89.863-72.36-121.053-7.64-6.86-8.637-7.447-12.661-7.447-3.647-.003-4.791.503-6.954 3.074zm-116.334 40.056c-6.652 1.889-8.722 10.682-3.739 15.883 2.367 2.471 3.7 2.916 10.35 3.461 24.172 1.984 43.615 10.057 59.763 24.815 15.391 14.067 27.253 37.562 28.88 57.208 1.126 13.594 1.512 15.248 4.175 17.912A9.592 9.592 0 0 0 388 239.2c2.474-2.582 2.687-3.461 2.687-11.093 0-31.9-17.833-65.785-45.434-86.338-14.935-11.122-37.067-19.922-53.566-21.3l-10-.9a21.574 21.574 0 0 0-6.745.564zm-127.453 11.208c-6.708 2.818-10.565 5.868-17.106 13.531a99.385 99.385 0 0 0-21.415 41.009c-2.088 7.918-2.558 12.1-2.659 23.619-.142 16.24 1.594 26.1 6.913 39.295 7.261 18.008 8.324 19.247 67.365 78.524 42.259 42.427 56.413 56.032 62.613 60.187 37.323 24.993 85.406 22.888 120.567-5.279 13.94-11.167 18.631-20.335 17.7-34.581-.806-12.289-2.6-14.747-32.634-44.844-29.546-29.6-32.23-31.557-44.739-32.561-11.291-.907-18.718 2.139-29.057 11.917-7.542 7.131-10.275 8.334-14.649 6.447-1.761-.76-11.19-9.448-20.952-19.306-16.722-16.887-17.75-18.145-17.75-21.713 0-3.288.879-4.733 6.65-10.937 9.391-10.1 11.85-15.73 11.85-27.149 0-15-.832-16.229-32.3-47.7-30.754-30.755-32.589-32.034-46.7-32.557-6.622-.243-8.979.117-13.697 2.098zm18.848 18.716c2.737 1.041 44.659 41.866 50.532 49.21 3.143 3.929 4.542 9.711 3.427 14.156-.351 1.4-3.614 5.814-7.25 9.81-10.128 11.133-13.189 19.8-10.887 30.806 1.358 6.494 5.378 11.462 25.207 31.159 22.406 22.256 25.179 24.1 36.321 24.1 8.731 0 14.006-2.456 22.6-10.526 3.794-3.56 7.881-6.99 9.082-7.621 3.109-1.633 8.878-1.418 12.616.468 3.508 1.771 43.566 40.956 49.81 48.725 3.4 4.228 3.89 5.495 3.89 10.028 0 6.537-2.134 9.728-11.415 17.069a85.324 85.324 0 0 1-29.208 14.743c-6.288 1.79-10.5 2.25-20.877 2.281-13.991.042-19.532-.953-30.815-5.53-14.412-5.848-15.984-7.22-71.5-62.42-61.12-60.772-62.8-62.806-68.71-83.189-7.726-26.643-1.1-56.084 17.192-76.387 6.8-7.549 12.799-9.614 19.985-6.882zm107.679 29.364c-3.809 1.7-5.529 4.6-5.529 9.327 0 5.554 3.468 8.239 12.721 9.848 9.587 1.667 15.292 4.373 20.749 9.839 5.631 5.641 8.692 12.093 9.891 20.848 1.266 9.242 4.105 12.717 10.39 12.717 4.682 0 9.342-3.592 9.583-7.386a54.2 54.2 0 0 0-6.18-27.7c-3.333-6.6-13.434-17.26-19.992-21.093-10.157-5.941-25.649-9.073-31.633-6.4zM3.359 258.043a9.569 9.569 0 0 0-2.25 11.806C3.016 273.538 5.452 275 9.687 275s6.671-1.462 8.578-5.151C21.676 263.253 17.184 256 9.687 256a10.949 10.949 0 0 0-6.328 2.043zM31.995 365.01a10.074 10.074 0 0 0-3.808 3.349c-1.931 2.948-9.5 30.528-9.5 34.619 0 3.471 4.046 8.566 7.489 9.43 5.619 1.41 10.361-2.537 12.955-10.784.47-1.5 1.729-.281 6.219 6 18.873 26.4 46.413 51.965 73.337 68.069a254.133 254.133 0 0 0 97 33.445c12.216 1.626 47.724 1.6 60-.041 22.018-2.946 51.019-10.613 58.038-15.344 6.26-4.218 6.19-13.032-.129-16.3-4.087-2.114-5.939-1.874-19.412 2.509-65.244 21.226-137.234 11.344-193.6-26.577a213.776 213.776 0 0 1-37.609-31.715c-8.813-9.164-24.288-28.221-24.288-29.909 0-.31 2.288-.495 5.084-.412 4.424.131 5.4-.213 7.493-2.646 3.339-3.878 3.884-6.93 1.962-10.98-2.028-4.273-2.99-4.708-21.4-9.686-15.926-4.305-16.458-4.386-19.831-3.027zm324.991 96.49c-3.4 2.381-4.7 7.611-2.933 11.831 1.734 4.149 4.182 5.666 9.145 5.666a9.723 9.723 0 0 0 9.489-9.5c0-7.471-9.523-12.321-15.701-7.997z" fill-rule="evenodd"/></svg>