<svg xmlns="http://www.w3.org/2000/svg" viewBox="0 0 453.571 511.783" fill="#fff" xmlns:v="https://vecta.io/nano"><path d="M217.071 1.36a39.252 39.252 0 0 0-7.5 3.722c-1.65 1.15-18.075 16.844-36.5 34.874l-33.5 32.783-37.212.008c-43.176.01-44.234.19-53.348 9.067-9.46 9.215-9.4 8.882-9.724 51.942l-.287 37.5-16.871 17c-9.8 9.87-17.854 18.887-19.215 21.5l-2.345 4.5-.284 49.178L0 312.612l2.224 2.072c3.773 3.515 9.008 2.6 11.384-2 1.221-2.361 1.463-10.357 1.463-48.378 0-25.053.337-45.529.75-45.5 1.182.073 160.809 158.71 160.25 159.256-.275.269-36.5 20.269-80.5 44.443l-80 43.954-.5-63.938-.5-63.939-2.361-1.911c-3.071-2.486-7.614-2.436-10.163.113-2 2-2.022 2.871-1.75 77.25l.274 75.226 2.293 4.295a34.682 34.682 0 0 0 15.046 14.921l5.661 2.78 143.782.263 143.782.264 2.468-2.468c3.141-3.141 3.146-6.972.013-10.1l-2.454-2.455-141.3-.022-145.394-1.883c-4.106-1.865-7.9-6.053-8.554-9.434-.523-2.719 203.5-114.8 210.136-115.433 3.932-.378 5.739.18 13.041 4.031 13.7 7.222 198.408 108.842 199.184 109.582 1.593 1.519-3.782 8.692-8.174 10.909-4.418 2.23-4.847 2.25-47.611 2.25-42.143 0-43.215.049-45.788 2.073a6.754 6.754 0 0 0 .048 10.892c2.653 2.087 3.186 2.107 48.25 1.823l45.567-.288 5.661-2.78a34.682 34.682 0 0 0 15.046-14.925l2.293-4.295v-275l-2.678-5c-1.692-3.158-8.784-11.075-19.25-21.489l-16.572-16.488v-9.762c0-8.428-.273-10.034-2-11.761-3.25-3.25-7.5-3.01-10.75.607l-2.25 2.5v81.394l-68.016 68-68.015 68-6.235-3.324c-22.8-12.159-21.531-11.676-30.734-11.676-9.223 0-7.5-.656-30.734 11.688l-6.235 3.312-68.015-68-68.016-68V100.432l2.543-4.34a17.083 17.083 0 0 1 6.46-6.338c3.868-1.973 5.936-2 164.119-2h160.2l4.1 2.4a20.092 20.092 0 0 1 6.338 6.386c1.972 3.51 2.239 5.411 2.239 15.963 0 10.416.258 12.307 1.976 14.491 2.532 3.22 4.966 3.822 8.847 2.19 4.064-1.708 4.448-3.586 4.024-19.645-.308-11.663-.651-13.9-2.806-18.287-3.549-7.226-10.525-13.789-17.388-16.357-5.475-2.048-7.372-2.144-42.941-2.162l-37.212-.019-34.5-33.758C254.054 13.5 244.342 4.619 240.571 2.832c-6.525-3.092-17.184-3.759-23.5-1.472zm16.771 14.945c2.394 1 13.27 11.006 30.705 28.25l27.344 27.451c.191.412-28.941.75-64.737.75s-65.083-.132-65.083-.294c0-1.378 53.947-53.73 57.145-55.456a15.794 15.794 0 0 1 14.626-.701zm-24.75 116.519c-18.942 4.959-34.2 15.859-44.5 31.8-30.3 46.873-2.1 108.549 53.091 116.081 11.254 1.536 15.39-.4 15.39-7.21 0-4.121-3.7-6.341-12.585-7.547-10.524-1.429-17.8-4.225-27-10.376-25.34-16.948-33.63-50.638-19.226-78.131 4.677-8.927 16.468-20.491 25.554-25.062 24.256-12.2 52.749-7.5 70.962 11.722 10.662 11.25 16.292 23.935 16.292 36.7 0 6.526-2.978 19.026-5.9 24.743-5.152 10.1-17.713 13.733-21.587 6.242-1.266-2.449-1.518-8.335-1.518-35.485 0-31.217-.082-32.632-2-34.55a7.527 7.527 0 0 0-10.927.635 10.021 10.021 0 0 0-2.073 5.083c0 1.347-.337 2.275-.75 2.063-7.675-3.951-9.084-4.28-18.25-4.266-8.31.013-10.129.345-14.52 2.65-14.878 7.811-23.546 26.659-20.517 44.615 4.866 28.851 31.605 43.906 51.885 29.215l4.221-3.058 4.758 4.886c5.749 5.9 10.3 7.6 18.587 6.936 12.323-.989 23.079-9.657 28.015-22.574 9.778-25.589 6.386-48.444-10.307-69.451-10.02-12.608-24.067-21.522-40.532-25.718-10.531-2.681-26.191-2.658-36.563.057zm22.977 48.431c12.207 6.312 14.8 30.437 4.689 43.689-4.524 5.932-11.028 8.626-16.712 6.923-12.524-3.753-19.616-20.8-15.107-36.319 1.6-5.516 6.661-11.818 11.332-14.12 4.155-2.048 12.006-2.134 15.798-.173zM39.071 206v13.24l-6.731-6.73-6.731-6.731 6.452-6.51c3.549-3.581 6.578-6.51 6.731-6.51s.279 5.955.279 13.241zm382.741 6.5l-6.741 6.74v-26.965l6.741 6.74 6.74 6.741zm17.259 130.341v124.078l-3.25-1.962c-1.788-1.079-37.9-20.974-80.25-44.209l-77.5-42.713c-.564-.526 159.085-159.161 160.25-159.233.413-.025.75 55.791.75 124.036z" fill-rule="evenodd"/></svg>