<svg xmlns="http://www.w3.org/2000/svg" viewBox="0 0 382 511.883" fill="#fff" xmlns:v="https://vecta.io/nano"><path d="M168.5 1.445a177.414 177.414 0 0 0-69.226 25.089c-32.293 20.453-58.722 54.235-70.682 90.349-10.264 31-11.367 65.555-3.023 94.765 10.043 35.161 26.079 61.91 72.19 120.419L118 358.317c0 .312-10.775.566-23.944.566-23.427 0-24 .049-26.433 2.25C64.729 363.749 0 498.2 0 501.6a14.186 14.186 0 0 0 1.2 4.816c2.553 5.6.678 5.472 77.24 5.472h70.533l3.243-2.9c2.684-2.4 3.244-3.622 3.244-7.1s-.56-4.7-3.244-7.1l-3.243-2.9H87.484c-33.816 0-61.484-.127-61.484-.282s12.1-25.467 26.881-56.25l26.881-55.968 27.453-.266 27.454-.265 18 22.765 18 22.766-14.081.5c-9.026.32-14.92.978-16.417 1.83-3.545 2.021-5.521 7.561-4.164 11.674 2.207 6.685.6 6.5 55.275 6.5 48.718 0 49.376-.027 51.6-2.1 3.377-3.146 4.38-6.607 3.068-10.583-1.917-5.809-4.573-6.758-20.474-7.321l-14.13-.5 18-22.766 18-22.765 27.454.265 27.453.266 26.881 55.968L356 491.6c0 .154-27.668.282-61.484.282h-61.484l-3.243 2.9c-2.684 2.4-3.244 3.622-3.244 7.1s.56 4.7 3.244 7.1l3.243 2.9h70.533c76.562 0 74.687.133 77.24-5.472A14.186 14.186 0 0 0 382 501.6c0-3.395-64.729-137.846-67.623-140.462-2.435-2.2-3.006-2.25-26.433-2.25-13.169 0-23.944-.255-23.944-.566s9.1-12.124 20.231-26.25c33.344-42.333 46.848-62.058 58.315-85.184 13.713-27.654 19.475-50.519 19.436-77.128a166.438 166.438 0 0 0-46.921-116.149c-15.581-16.26-28.826-26.11-48.218-35.855C237.4 2.96 201.388-3.014 168.5 1.445zm51.8 21.4C279.692 34.564 325.993 80.3 339.1 140.189c2.855 13.045 3.6 37.164 1.539 49.706-5.462 33.21-21.568 64.713-55.465 108.488l-94.173 118.5c-.694 0-67.774-84.408-94.173-118.5-33.9-43.775-50-75.278-55.465-108.488-2.027-12.33-1.315-36.6 1.453-49.524A151.752 151.752 0 0 1 144.244 27.463a193.664 193.664 0 0 1 32.256-6.988c7.545-1.075 33.446.325 43.8 2.368zm-50.147 47.142c-20.878 4.383-36.41 12.975-52.153 28.85-14.59 14.712-23.131 30.017-27.649 49.546-2.7 11.667-2.518 33.97.37 45.5a101.114 101.114 0 0 0 25.388 46.478 102.375 102.375 0 0 0 48.464 29.231c8.982 2.493 11.5 2.756 26.427 2.761 14.123.005 17.725-.326 25-2.3 20.064-5.447 33.069-13.066 48-28.123 18.508-18.663 28.094-39.849 29.656-65.546 2.657-43.708-23.828-85.108-64.862-101.384a107.1 107.1 0 0 0-58.641-5.013zM216 91.757a81.005 81.005 0 0 1 33.571 20.555c32.509 32.508 32.517 83.652.019 116.115-16.2 16.182-36.022 24.456-58.59 24.456-22.972 0-42.373-8.217-59.144-25.048A81.956 81.956 0 0 1 108 170.383c0-35.233 23.57-67.537 57.257-78.474 10.329-3.353 15.164-3.955 28.743-3.578 10.645.295 13.909.804 22 3.426zm-31.211 403.024c-2.684 2.4-3.244 3.622-3.244 7.1 0 7.217 7.53 12.075 13.771 8.883 9.568-4.893 6.06-18.883-4.734-18.883-1.403.002-4.01 1.306-5.793 2.9z" fill-rule="evenodd"/></svg>