<svg xmlns="http://www.w3.org/2000/svg" viewBox="0 0 511.271 510.976" fill="#fff" xmlns:v="https://vecta.io/nano"><path d="M124.869 1.011a143.8 143.8 0 0 0-82.411 41.151C-.759 85.38-12.313 151.8 13.944 206.073l3.87 8-1.543 9.5c-2.179 13.408-2.926 43.1-1.45 57.6a243.86 243.86 0 0 0 95.548 169.892c34.959 26.312 71.758 41.3 117 47.668 13.924 1.958 44.591 1.668 59.639-.563l12.638-1.875 8.362 3.554c19.633 8.346 34.226 11.057 59.861 11.122 20.745.052 30.4-1.3 46.724-6.522 21.427-6.86 39.466-17.947 55.837-34.318s27.458-34.41 34.318-55.837c5.226-16.321 6.574-25.979 6.522-46.724-.065-25.635-2.776-40.228-11.122-59.861l-3.554-8.362 1.875-12.638c2.231-15.048 2.521-45.715.563-59.639-6.363-45.242-21.356-82.041-47.668-117a243.86 243.86 0 0 0-169.892-95.544c-14.506-1.476-44.195-.729-57.6 1.45l-9.5 1.543-8-3.872a158.49 158.49 0 0 0-35.5-11.6c-11.748-2.23-34.231-2.734-46.003-1.036zm43.5 18.067a141.48 141.48 0 0 1 34.113 11.857l8.225 4.27 11.331-1.827c15.475-2.494 43.658-3.4 57.982-1.873 27.854 2.751 54.934 10.757 79.805 23.595C425.858 88.732 470.3 150.825 481.47 225.073c2.585 17.179 2.4 46.409-.4 64.428l-2.089 13.428 3.911 8.194a125.09 125.09 0 0 1 10.017 32.95c1.941 12.4 1.722 39.221-.407 49.957-10 50.414-47.763 88.18-98.177 98.177-10.736 2.129-37.56 2.348-49.957.407a125.09 125.09 0 0 1-32.95-10.017l-8.194-3.911-13.424 2.089c-18.019 2.8-47.249 2.984-64.428.4C151.121 470 89.028 425.562 55.4 359.529a219.58 219.58 0 0 1-23.6-80.438c-1.5-14.947-.62-41.794 1.882-57.349l1.818-11.331-4.27-8.225a144.38 144.38 0 0 1-12.02-34.613c-2.123-10.088-2.382-34.815-.47-45 10.785-57.458 54.966-98.259 114.128-105.4 6.839-.822 27.622.292 35.501 1.906zm72 70.117c-71.611 7.385-114.322 35.124-122.035 79.258-7.619 43.593 16.854 81.965 66.007 103.491 18.269 8 36.087 12.814 67.028 18.107 20.047 3.429 28.195 5.739 39.42 11.172 24.518 11.867 28.389 27.9 10.653 44.108-6.021 5.5-15.3 10.387-24.645 12.966-4.879 1.347-10.164 1.775-21.928 1.775-13.4 0-16.4-.3-22.181-2.241-19.428-6.517-33.5-20.458-42.938-42.537-4.722-11.048-7.839-15.73-12.711-19.094-9.207-6.356-23.058-9.676-32.2-7.715-16.937 3.55-29.838 17.326-32.27 34.46-1.352 9.384.744 21 6.164 34.167 17.233 41.853 62.435 66.46 127.233 69.262 41.718 1.8 72.214-4.328 99.6-20.029 39.2-22.474 60.648-58.4 57.2-95.8-3.182-34.445-21.44-58.073-58.397-75.545-17.451-8.252-34.228-13.376-68.5-20.921-47.116-10.374-72-22.594-72-35.357 0-13.32 25.479-25.449 53.5-25.469 12.488-.009 17.6 1 26.664 5.267 7.227 3.4 11.267 7.709 17.4 18.556 14.251 25.192 26.205 35.62 42.588 37.15 10.354.967 23.011-2.969 29.091-9.047 9.19-9.188 12.87-18.782 12.889-33.6.02-16.914-4.607-27.143-19.17-42.377-18.269-19.109-41.226-31.328-70.829-37.7-7.609-1.639-14.051-2.142-30.635-2.393-11.548-.184-22.798-.141-24.998.091zm39.238 15.454c28.684 3.2 54.185 14.527 72.043 32 12.42 12.156 15.465 18.672 15.616 33.418.1 9.321-.1 10.374-2.9 15.5-3.9 7.146-9.107 10-18.252 10-7.752 0-12-2.005-18.358-8.669-5.37-5.628-8.879-10.764-14.918-21.831-8.125-14.891-18.246-22.766-35.517-27.637-6.492-1.831-10.437-2.238-21.455-2.215-31.678.067-57.016 10.872-67.518 28.792-3.711 6.333-4.61 17.318-1.98 24.2 2.275 5.956 11.191 14.9 20.138 20.2 14.457 8.564 30.029 13.587 68.86 22.215 67.063 14.9 98.426 34.809 107.031 67.942 2.376 9.15 2.455 28.425.151 37-7.142 26.587-30.949 51.092-61.526 63.33-21.308 8.528-38.307 11.1-68.656 10.4-29.644-.688-49.733-4.356-69.953-12.774-24.53-10.212-43.047-28.513-50.427-49.838-5.868-16.956-4.342-28.855 4.6-35.864 5.859-4.593 7.679-5.253 14.464-5.247 12.639.011 16.422 2.53 20.836 13.876 7.975 20.5 23.547 39.281 39.7 47.885 18.774 10 45.1 12.611 67.784 6.716 8.83-2.3 23.116-9.634 30.249-15.539 6.674-5.525 14.278-15.963 16.819-23.09a42.9 42.9 0 0 0 1.607-11.354c.1-12.951-6.189-24.127-18.546-32.946-13.49-9.625-27.889-14.618-58.129-20.153-51.082-9.35-77.908-20.576-98.132-41.066-6.545-6.631-9.019-10.052-12.681-17.537-2.427-4.899-4.369-10.023-5.8-15.3-1.65-7.915-1.624-23.617.051-30.5 7.285-29.942 38.223-51.123 86.892-59.486 19.354-3.316 41.555-4.25 57.907-2.427z" fill-rule="evenodd"/></svg>